<svg xmlns="http://www.w3.org/2000/svg" viewBox="0 0 920 199.44">
	<defs>
		<style>
			.cls-1 {
				fill: #fff;
			}

			.cls-2 {
				fill: #61d9fa;
			}
		</style>
	</defs>
	<g id="Camada_2" data-name="Camada 2">
		<g id="Camada_1-2" data-name="Camada 1">
			<g id="animes-react-logo">
				<g id="animes-react-logo-text">
					<path id="letter-a" class="cls-1"
						d="M68.38,10.93c1-2.68,2.08-4,5.32-3.89,10.16.28,20.33.21,30.5,0,2.78-.05,4.18.63,5.2,3.37Q143,100.55,176.85,190.6c1.24,3.29-.63,6-4.16,6-11.22,0-22.44-.14-33.66.09-3.48.06-5.18-.7-6.28-4.32-3.18-10.51-7-20.81-10.32-31.29-.84-2.64-2.2-2.94-4.54-2.93-19.29.07-38.58.1-57.86,0-2.61,0-3.59.85-4.34,3.16-3.41,10.59-7.11,21.09-10.44,31.71-.85,2.71-1.89,3.74-4.86,3.7-11.63-.17-25.13,0-37.2,0a3.18,3.18,0,0,1-3-4.31ZM89.47,63.21l-1-.07L68.48,123h41.23C102.88,102.82,96.17,83,89.47,63.21Z" />
					<path id="letter-m" class="cls-1"
						d="M457,67.35c29.9-21.43,57-19.83,75.54,4.34,7.25-9,16.31-15,27.65-17.54a60.56,60.56,0,0,1,30.14.71c16.3,4.7,24.4,16.63,27.8,32.38A85.24,85.24,0,0,1,620,105.41c0,28.58-.07,57.15.06,85.73,0,3.94-1,5.65-5.27,5.54-10.16-.27-20.34-.24-30.5,0-4.05.09-5.1-1.49-5.08-5.26.11-27.53.06-55.07,0-82.6A44.4,44.4,0,0,0,577.87,96c-1.55-5.18-5-8.22-10.28-9.39-12.14-2.67-21.7,1-27,10.49A11.71,11.71,0,0,0,539.1,103q.14,43.75.15,87.52c0,6,0,6-6,6-9.87,0-19.74-.15-29.6.08-4,.09-5.12-1.41-5.1-5.22.11-27.24.07-54.47.05-81.71A47.59,47.59,0,0,0,497.13,96a12.58,12.58,0,0,0-10.28-9.39c-9.78-1.92-18.76-.91-25.74,7.19a10.41,10.41,0,0,0-2.61,7.28q.13,44.88.05,89.75c0,5.68,0,5.72-5.81,5.72-10,0-20-.1-30.05.06-3.47,0-4.75-1.11-4.74-4.64q.12-66.07,0-132.17c0-3.22,1-4.55,4.4-4.51,10.17.14,20.33.17,30.5,0,2.82-.06,3.67.93,3.68,3.5S456.83,64.09,457,67.35Z" />
					<path id="letter-e" class="cls-1"
						d="M724.54,139.42c-13.15,0-26.3.11-39.45-.08-3.36-.05-3.63,1-2.87,3.8,4.29,15.75,18.64,24.91,35.75,22.81,10-1.23,18.65-5.12,25.17-13,2.3-2.77,4.16-2.71,6.47,0,4.87,5.64,9.77,11.27,14.91,16.66,2.17,2.27,1.78,3.73,0,5.94-9.88,12.32-22.9,19.29-38.2,22.15-18.45,3.46-36.38,1.92-53-7.38-19.62-11-30.19-28.16-32.73-50.29-1.8-15.71-.78-31.19,4.92-46.11,11.79-30.83,39.52-44,69.92-40.76,30.7,3.3,48.79,24.8,52.72,53.62,1.28,9.35.72,18.72,1,28.08.11,3.54-1.3,4.65-4.76,4.61C751.15,139.33,737.84,139.42,724.54,139.42Zm-42.47-28.65q22.59,0,45.07,0c1.35,0,2.06-.2,2.17-1.92a21.37,21.37,0,0,0-17-22.4C696.32,83.21,684.47,92.63,682.07,110.77Z" />
					<path id="letter-n" class="cls-1"
						d="M238.47,68.25c16.17-15.44,34.62-18.63,54.65-13.32,16.06,4.26,23.76,16.41,27.21,31.77a89.56,89.56,0,0,1,1.94,19.94c0,28.13-.09,56.26.07,84.39,0,4.26-1.15,5.79-5.58,5.65q-14.79-.44-29.59,0c-4.49.14-5.56-1.51-5.54-5.71.16-27.09.08-54.18.08-81.26,0-1,0-2.09,0-3.13-.11-11.73-3.58-17.68-11.56-19.78-12-3.15-24.11.87-29.47,9.62-1,1.69-.91,3.39-.91,5.14q0,44.66,0,89.3c0,5.72,0,5.73-5.78,5.73-10,0-20-.09-30,0-3.42.05-4.79-1-4.79-4.61q.14-66.09,0-132.17c0-3.21,1.07-4.56,4.41-4.52q15.48.18,30.94,0c2.61,0,3.34.84,3.33,3.29C237.82,61.55,238.2,64.51,238.47,68.25Z" />
					<path id="letter-s" class="cls-1"
						d="M881.06,100.87c-5.08,0-10.17-.08-15.25,0-2.83.06-4.26-.78-4.81-3.85-1.52-8.44-5.3-12-13.79-13.49a27.25,27.25,0,0,0-14.56,1.11c-5.37,2-8.31,5.95-8.41,10.94-.1,5.34,3.34,8,7.62,9.92,8.51,3.89,17.82,4.75,26.75,7s17.53,4.86,25.31,9.8c23,14.6,24.84,45.9,3.7,63-11.23,9.09-24.46,12.76-38.57,13.67-14.68.95-29-.79-42.12-7.92-13.83-7.51-23.21-18.45-26-34.3-1.18-6.77-.46-7.63,6.22-7.63,9.57,0,19.14.06,28.7,0,2.24,0,3.33.21,3.58,2.93.73,8.21,5.66,13.17,13.45,15.35a34.78,34.78,0,0,0,21.17-.36c4.65-1.62,8-4.53,8.37-9.9s-2.81-8.19-7.1-10.25c-7.32-3.52-15.29-4.89-23.12-6.73-9.76-2.29-19.24-5.31-27.85-10.6-23.55-14.48-26.37-43.2-6.07-62C808.48,58.17,820.93,54,834.49,53c13.85-1,27.52.09,40.29,6.1,14.33,6.75,24.08,17.29,26.63,33.45,1.19,7.51.54,8.35-6.9,8.35Z" />
					<g id="letter-i">
						<path class="cls-1"
							d="M390.61,126.45v64.29c0,5.77-.08,5.85-5.67,5.85-10,0-20-.11-30,.06-3.63.06-5-1.05-5-4.83q.14-65.85,0-131.7c0-3.37,1-4.85,4.6-4.79,10.46.15,20.93.19,31.39,0,3.9-.07,4.8,1.56,4.78,5.07C390.56,82.4,390.61,104.43,390.61,126.45Z" />
						<path class="cls-1"
							d="M370.08,42c-13.32,0-22.52-8.85-22.34-21.37S356.91,0,370.26,0,393,8.65,392.9,21.09,383.49,42.08,370.08,42Z" />
					</g>
				</g>
			</g>
		</g>
	</g>
</svg>
