<svg xmlns="http://www.w3.org/2000/svg" viewBox="0 0 215.35 192.4">
	<defs>
		<style>
			.react-icon-svg-logo {
				fill: #61d9fa;
			}
		</style>
	</defs>
	<g id="Camada_2" data-name="Camada 2">
		<g id="Camada_1-2" data-name="Camada 1">
			<g id="animes-react-logo">
				<g id="animes-react-logo-icon">
					<path id="animes-react-logo-icon-center" class="react-icon-svg-logo"
						d="M88.45,96.12a19.25,19.25,0,1,1,19.2,19.42A19.17,19.17,0,0,1,88.45,96.12Z" />
					<path id="animes-react-logo-icon-lines" class="react-icon-svg-logo"
						d="M212.39,85.45a37,37,0,0,0-11-11.58c-8.44-6.05-17.94-9.82-27.74-12.94-1-.33-2.51-.27-3-1.12s.29-2.1.52-3.17c2.28-10.48,3.86-21,2.54-31.79A34.74,34.74,0,0,0,169,10.23,20.41,20.41,0,0,0,151.27.05c-5.94-.17-11.41,1.58-16.67,4.08-9.82,4.66-18.16,11.4-26,18.83-.73.7-1.1.73-1.83,0A118.92,118.92,0,0,0,91.52,10.38C84.36,5.51,76.85,1.35,68.06.23A21.78,21.78,0,0,0,53.82,2.84c-5.2,3-8.3,7.69-10.16,13.26-2.27,6.74-2.67,13.69-2.3,20.75a120.27,120.27,0,0,0,3.35,21.68c.27,1.14.11,1.54-1,1.87-9,2.65-17.79,6-25.85,10.94-5.5,3.39-10.48,7.35-14.06,12.83A21.05,21.05,0,0,0,.36,100c1,5.22,3.76,9.49,7.41,13.21,5.63,5.74,12.5,9.64,19.75,12.93a120.62,120.62,0,0,0,16.4,5.93c.82.23,1.1.54.87,1.45a122,122,0,0,0-3.41,21.68,61.85,61.85,0,0,0,1.06,16.74c1.13,5.29,3.11,10.23,7,14.15,5.51,5.62,12.33,7.12,19.9,5.91a48.27,48.27,0,0,0,16.31-6.25,113,113,0,0,0,21.29-16.41c.61-.57.93-.63,1.57,0A129.14,129.14,0,0,0,121,180c6.3,4.64,12.93,8.67,20.49,11A27.36,27.36,0,0,0,155,192c8.21-1.61,13.34-6.8,16.27-14.37,2.76-7.18,3.2-14.66,2.77-22.26a118.75,118.75,0,0,0-3.36-21.55c-.26-1.11,0-1.49,1-1.79a112.66,112.66,0,0,0,22.13-8.79c5.77-3.12,11.15-6.76,15.44-11.82a23.75,23.75,0,0,0,6.11-13.8V94.86A21.57,21.57,0,0,0,212.39,85.45ZM189.5,115.12A109.72,109.72,0,0,1,169,123.26c-.91.28-1.21,0-1.46-.8a210.54,210.54,0,0,0-9.67-25.09,2.6,2.6,0,0,1,0-2.41,211,211,0,0,0,9.61-25c.3-1,.59-1.14,1.59-.84a103.23,103.23,0,0,1,22.86,9.49c4.77,2.82,9.19,6,12.21,10.83a13.39,13.39,0,0,1,2.08,7.79c-.07,2.79-1.85,5.91-4.33,8.69A43.94,43.94,0,0,1,189.5,115.12Zm-26.42,58.3c-1.08,3-2.54,5.7-5.19,7.6a12.46,12.46,0,0,1-8.76,2.12c-7.69-.79-14.13-4.55-20.3-8.81A120.11,120.11,0,0,1,115,162.87c-.71-.65-.83-1-.09-1.79a193,193,0,0,0,16.73-20.78c.91-1.29,2.06-1.19,3.19-1.3a218.58,218.58,0,0,0,25.56-4.08c.86-.19,1.13-.07,1.33.78a114,114,0,0,1,3.14,20.36c.06,1.27.2,2.53.18,3.81C164.94,164.46,164.65,169,163.08,173.42Zm-56-18.69c-4.09-4.58-8.07-9.25-11.76-14.17,0-.06,0-.15-.13-.49a247.1,247.1,0,0,0,25.24,0c-1.18,1.52-2.14,2.77-3.12,4-2.82,3.62-5.84,7.07-8.89,10.49C108,155,107.73,155.43,107.1,154.73Zm-6.41,7.81c-7.6,7.16-15.55,13.85-25.23,18.13a28.39,28.39,0,0,1-9.93,2.55c-6.15.32-10.66-2.93-13-9.21-1.71-4.56-2.06-9.32-2.2-13.85a109.85,109.85,0,0,1,3-23.09c.56-2.38.56-2.36,3-1.84a205.27,205.27,0,0,0,21.92,3.49c1.35.14,2.68.35,4,.45a1.32,1.32,0,0,1,1.05.71,215.81,215.81,0,0,0,17.36,21.5C101.17,161.85,101.16,162.12,100.69,162.54Zm-54-39.19c-9.37-2.83-18.5-6.22-26.64-11.77a28.37,28.37,0,0,1-9.17-9.29,12.92,12.92,0,0,1-1.7-6.83c.07-3,1.79-6.09,4.18-8.84a42.59,42.59,0,0,1,11.79-9A109.17,109.17,0,0,1,46.65,69c.78-.23,1,0,1.18.69A212.29,212.29,0,0,0,56,91.56c.5,1.17,1,2.35,1.56,3.48a2.32,2.32,0,0,1,.06,2.2,213.66,213.66,0,0,0-9.77,25.31C47.66,123.14,47.5,123.6,46.68,123.35ZM52.07,19.7c1.22-4,3.23-7.45,7.21-9.35A12.57,12.57,0,0,1,65,9.18,28.55,28.55,0,0,1,76.12,12,76.56,76.56,0,0,1,93.36,23.27c2.45,2.06,4.82,4.22,7.15,6.4.6.56.68.88.07,1.54a199,199,0,0,0-16.7,20.62,3.14,3.14,0,0,1-2.57,1.49,204.61,204.61,0,0,0-25.92,4.09c-1.24.28-1.6,0-1.86-1.18a123,123,0,0,1-3-20.11A46.57,46.57,0,0,1,52.07,19.7Zm56.26,18c4.14,4.53,8,9.27,11.78,14.15,0,0,0,.15.07.42-8.31-.36-16.6-.41-24.89,0,0-.09-.1-.19-.15-.29,1.64-2.07,3.24-4.19,4.94-6.22,2.25-2.7,4.6-5.32,6.9-8C107.42,37.31,107.74,37.09,108.33,37.73Zm6.33-7.84c7.38-7,15.12-13.5,24.45-17.81a27.31,27.31,0,0,1,10.6-2.86C156,9,160.22,11.81,162.6,17.68a33,33,0,0,1,2.24,10.51c.09,1.48.31,2.95.24,3.8a112,112,0,0,1-3.41,24.89c-.16.62-.33.79-1,.64-5.83-1.32-11.72-2.36-17.63-3.16-3.17-.44-6.35-.77-9.52-1.08a2,2,0,0,1-1.63-.9,202.3,202.3,0,0,0-17.21-21.32C114.29,30.63,114.16,30.36,114.66,29.89ZM63.1,107.55a2.07,2.07,0,0,1,.32-.39c3.91,7.55,8.13,14.83,12.74,22.08-4-.43-7.75-1-11.5-1.72-2.41-.44-4.81-.94-7.21-1.44-.51-.1-1.12-.1-.82-1C58.55,119.11,60.69,113.28,63.1,107.55ZM59.34,75.23c-.92-2.58-1.74-5.2-2.66-7.79-.22-.66-.11-1,.59-1.11,6.17-1.3,12.36-2.42,18.62-3.16,0,0,0,0,.17.12-4.52,7.1-8.72,14.4-12.72,22.05C61.78,81.88,60.54,78.56,59.34,75.23ZM68.55,97a1.86,1.86,0,0,1,.15-1.83q4.39-9,9.4-17.57Q82.51,70,87.4,62.78a1.75,1.75,0,0,1,1.45-.92c7.65-.5,15.32-.83,23-.65,5,.12,9.91.26,14.86.66a1.52,1.52,0,0,1,1.24.84,258.73,258.73,0,0,1,15,25c1.29,2.47,2.51,5,3.82,7.45a1.9,1.9,0,0,1,0,1.94A262.64,262.64,0,0,1,128,129.65a1.75,1.75,0,0,1-1.46.92c-6.3.36-12.61.63-19.14.53-6,.1-12.25-.16-18.48-.54a1.49,1.49,0,0,1-1.3-.73A263.28,263.28,0,0,1,68.55,97Zm83.53,10c1,2.5,1.95,4.7,2.78,7,1.3,3.57,2.49,7.18,3.79,10.75.37,1,.07,1.26-.83,1.46-6.08,1.28-12.18,2.35-18.6,3.14C143.85,122,148.06,114.7,152.08,107Zm0-21.56c-4-7.75-8.21-15-12.87-22.33,2.47.37,4.71.67,7,1,3.95.62,7.9,1.37,11.82,2.21.64.14,1,.25.75,1.11C156.83,73.42,154.61,79.3,152.07,85.41Z" />
				</g>
			</g>
		</g>
	</g>
</svg>
