<?xml version="1.0" standalone="no"?>
<!DOCTYPE svg PUBLIC "-//W3C//DTD SVG 20010904//EN"
 "http://www.w3.org/TR/2001/REC-SVG-20010904/DTD/svg10.dtd">
<svg version="1.0" xmlns="http://www.w3.org/2000/svg"
 width="432.000000pt" height="432.000000pt" viewBox="0 0 432.000000 432.000000"
 preserveAspectRatio="xMidYMid meet">
<metadata>
Created by potrace 1.11, written by Peter Selinger 2001-2013
</metadata>
<g transform="translate(0.000000,432.000000) scale(0.100000,-0.100000)"
fill="#000000" stroke="none">
<path d="M1299 4085 c-3 -2 -25 -5 -49 -6 -138 -7 -270 -100 -340 -240 -58
-113 -82 -239 -81 -424 0 -128 35 -411 55 -443 11 -19 15 -82 5 -88 -7 -4 -69
-26 -140 -50 -862 -294 -998 -853 -298 -1226 82 -44 239 -108 349 -143 47 -15
88 -31 93 -34 4 -4 -4 -59 -17 -122 -14 -63 -28 -143 -31 -179 -4 -36 -9 -76
-11 -90 -10 -60 -3 -272 11 -352 27 -157 71 -252 152 -333 153 -154 390 -161
662 -20 142 74 278 171 433 313 32 28 61 52 64 52 4 0 36 -26 72 -58 319 -283
586 -417 809 -407 218 10 359 142 424 395 30 118 32 412 3 555 -2 11 -6 34 -9
50 -3 17 -13 65 -22 108 -9 46 -12 81 -7 86 5 5 65 28 134 51 474 159 752 409
751 673 -1 217 -150 399 -461 560 -122 64 -360 157 -399 157 -24 0 -42 30 -31
50 4 8 11 33 14 55 4 22 11 56 16 75 4 19 11 55 14 80 4 25 10 68 13 95 10 66
10 318 1 375 -16 98 -21 117 -43 176 -100 266 -336 367 -628 269 -169 -57
-380 -190 -556 -351 -100 -92 -87 -91 -166 -17 -241 222 -524 381 -710 399
-33 4 -63 8 -66 10 -3 2 -8 2 -10 -1z m116 -206 c143 -32 401 -200 593 -385
18 -18 16 -22 -29 -73 -92 -103 -178 -208 -261 -322 -61 -84 -57 -81 -194 -94
-67 -6 -124 -15 -269 -42 -77 -14 -147 -26 -155 -27 -15 -1 -43 84 -54 166 -3
24 -8 54 -11 67 -26 137 -25 376 4 485 54 204 168 272 376 225z m1715 -10
c129 -58 192 -272 166 -564 -12 -145 -52 -355 -68 -366 -5 -3 -46 2 -91 12
-45 9 -118 22 -162 29 -44 6 -91 13 -105 16 -14 2 -52 6 -85 10 -129 12 -132
14 -178 79 -50 73 -179 234 -250 314 -31 35 -57 68 -57 74 0 28 245 228 374
305 81 49 201 100 259 111 61 12 146 3 197 -20z m-847 -675 c61 -74 113 -139
115 -144 2 -5 -95 -8 -215 -8 -120 0 -222 -1 -228 -2 -46 -10 -45 1 2 61 75
96 194 229 204 229 5 0 60 -61 122 -136z m228 -347 c39 -6 44 -10 112 -115
118 -179 317 -540 317 -573 0 -15 -66 -149 -133 -269 -116 -209 -242 -405
-267 -416 -19 -9 -647 -13 -720 -5 l-55 6 -53 80 c-88 132 -199 322 -273 468
l-70 137 48 93 c118 230 311 552 348 582 7 6 57 12 111 13 54 2 100 5 102 6 4
4 501 -3 533 -7z m-1055 -140 c-34 -56 -89 -150 -122 -209 -32 -60 -62 -108
-65 -108 -4 0 -14 19 -22 43 -9 23 -36 100 -62 171 -25 71 -44 135 -41 141 2
7 22 15 43 18 21 3 76 13 123 21 47 9 108 19 135 22 28 4 52 8 54 10 2 2 7 1
12 -1 4 -3 -21 -51 -55 -108z m1489 88 c118 -19 224 -41 230 -47 7 -7 -114
-350 -129 -365 -1 -1 -11 14 -21 35 -31 59 -160 284 -193 337 -32 52 -33 66
-4 59 9 -2 62 -11 117 -19z m-1951 -213 c21 -64 64 -175 94 -247 30 -71 59
-141 64 -155 11 -26 9 -32 -48 -157 -24 -52 -100 -254 -124 -328 -12 -38 -24
-73 -27 -77 -3 -6 -209 59 -258 82 -11 5 -55 25 -98 44 -107 48 -239 136 -302
202 -65 66 -97 130 -103 201 -12 141 135 295 407 425 91 43 318 128 346 128 6
0 28 -53 49 -118z m2433 102 c369 -121 593 -262 674 -422 32 -64 32 -150 0
-212 -35 -67 -155 -179 -252 -236 -111 -65 -201 -106 -354 -160 l-126 -44 -9
23 c-5 12 -30 80 -56 152 -25 71 -68 180 -95 243 -27 63 -49 121 -49 128 0 8
24 72 54 143 30 71 76 190 101 265 26 75 51 136 56 136 5 0 30 -7 56 -16z
m-2107 -839 c24 -44 78 -138 121 -210 42 -71 76 -132 74 -134 -4 -3 -178 24
-285 46 -19 4 -38 8 -42 9 -5 1 -17 2 -28 3 -11 0 -20 8 -20 16 0 30 126 363
134 354 2 -2 23 -40 46 -84z m1806 -117 c29 -82 52 -153 49 -157 -4 -8 -78
-26 -145 -36 -19 -3 -46 -7 -60 -10 -88 -16 -170 -26 -170 -20 0 3 33 60 74
128 40 67 95 162 121 211 l48 88 14 -27 c8 -14 39 -94 69 -177z m-1921 -367
c101 -20 265 -45 365 -56 30 -3 63 -7 73 -8 9 -2 56 -55 104 -118 80 -106 173
-221 197 -244 27 -25 76 -87 76 -95 0 -5 -49 -51 -109 -103 -562 -482 -913
-408 -896 188 5 176 53 455 79 455 6 0 56 -9 111 -19z m2044 -43 c7 -35 15
-74 17 -88 3 -14 9 -47 14 -75 40 -214 26 -449 -33 -579 -48 -103 -114 -149
-223 -152 -141 -5 -333 81 -526 235 -94 75 -197 169 -197 181 -1 8 14 31 32
50 54 58 169 199 250 306 l76 101 68 7 c150 15 176 19 314 46 207 40 193 42
208 -32z m-849 -48 c-1 -10 -207 -259 -230 -277 -17 -13 -39 9 -148 142 -31
39 -59 72 -62 75 -3 3 -15 19 -27 35 l-21 30 244 0 c134 0 244 -2 244 -5z"/>
<path d="M2075 2536 c-255 -63 -375 -325 -257 -561 89 -179 324 -256 506 -166
195 96 273 318 182 516 -73 159 -263 252 -431 211z"/>
</g>
</svg>
